<svg width="199" height="24" viewBox="0 0 199 24" fill="none" xmlns="http://www.w3.org/2000/svg">
<path d="M12 2H9C7.67392 2 6.40215 2.52678 5.46447 3.46447C4.52678 4.40215 4 5.67392 4 7V10H1V14H4V22H8V14H11L12 10H8V7C8 6.73478 8.10536 6.48043 8.29289 6.29289C8.48043 6.10536 8.73478 6 9 6H12V2Z" stroke="#FF7DCC" stroke-width="2" stroke-linecap="round" stroke-linejoin="round"/>
<path d="M53 2H43C40.2386 2 38 4.23858 38 7V17C38 19.7614 40.2386 22 43 22H53C55.7614 22 58 19.7614 58 17V7C58 4.23858 55.7614 2 53 2Z" stroke="#FF7DCC" stroke-width="2" stroke-linecap="round" stroke-linejoin="round"/>
<path d="M52 11.37C52.1234 12.2022 51.9813 13.0522 51.5938 13.799C51.2063 14.5458 50.5932 15.1514 49.8416 15.5297C49.0901 15.9079 48.2385 16.0396 47.4078 15.9059C46.5771 15.7723 45.8098 15.3801 45.2149 14.7852C44.6199 14.1902 44.2277 13.4229 44.0941 12.5922C43.9604 11.7615 44.0921 10.9099 44.4703 10.1584C44.8486 9.40685 45.4542 8.79374 46.201 8.40624C46.9478 8.01874 47.7978 7.87658 48.63 8C49.4789 8.12588 50.2649 8.52146 50.8717 9.1283C51.4785 9.73515 51.8741 10.5211 52 11.37Z" stroke="#FF7DCC" stroke-width="2" stroke-linecap="round" stroke-linejoin="round"/>
<path d="M53.5 6.5H53.51" stroke="#FF7DCC" stroke-width="2" stroke-linecap="round" stroke-linejoin="round"/>
<path d="M106 4.01006C105.042 4.68553 103.982 5.20217 102.86 5.54006C102.258 4.84757 101.457 4.35675 100.567 4.13398C99.6767 3.91122 98.7395 3.96725 97.8821 4.29451C97.0247 4.62177 96.2884 5.20446 95.773 5.96377C95.2575 6.72309 94.9877 7.62239 95 8.54006V9.54006C93.2426 9.58562 91.5013 9.19587 89.931 8.4055C88.3607 7.61513 87.0103 6.44869 86 5.01006C86 5.01006 82 14.0101 91 18.0101C88.9405 19.408 86.4872 20.109 84 20.0101C93 25.0101 104 20.0101 104 8.51006C103.999 8.23151 103.972 7.95365 103.92 7.68006C104.941 6.67355 105.661 5.40277 106 4.01006V4.01006Z" stroke="#FF7DCC" stroke-width="2" stroke-linecap="round" stroke-linejoin="round"/>
<path d="M146 9C147.591 9 149.117 9.63214 150.243 10.7574C151.368 11.8826 152 13.4087 152 15V22H148V15C148 14.4696 147.789 13.9609 147.414 13.5858C147.039 13.2107 146.53 13 146 13C145.47 13 144.961 13.2107 144.586 13.5858C144.211 13.9609 144 14.4696 144 15V22H140V15C140 13.4087 140.632 11.8826 141.757 10.7574C142.883 9.63214 144.409 9 146 9V9Z" stroke="#FF7DCC" stroke-width="2" stroke-linecap="round" stroke-linejoin="round"/>
<path d="M136 10H132V22H136V10Z" stroke="#FF7DCC" stroke-width="2" stroke-linecap="round" stroke-linejoin="round"/>
<path d="M134 7C135.105 7 136 6.10457 136 5C136 3.89543 135.105 3 134 3C132.895 3 132 3.89543 132 5C132 6.10457 132.895 7 134 7Z" stroke="#FF7DCC" stroke-width="2" stroke-linecap="round" stroke-linejoin="round"/>
<path d="M192 22.0268V18.1568C192.038 17.68 191.973 17.2006 191.811 16.7506C191.649 16.3006 191.393 15.8902 191.06 15.5468C194.2 15.1968 197.5 14.0068 197.5 8.54679C197.5 7.15062 196.963 5.80799 196 4.79679C196.456 3.5753 196.424 2.22514 195.91 1.02679C195.91 1.02679 194.73 0.676793 192 2.50679C189.708 1.88561 187.292 1.88561 185 2.50679C182.27 0.676793 181.09 1.02679 181.09 1.02679C180.576 2.22514 180.544 3.5753 181 4.79679C180.03 5.81549 179.493 7.17026 179.5 8.57679C179.5 13.9968 182.8 15.1868 185.94 15.5768C185.611 15.9168 185.357 16.3222 185.195 16.7667C185.033 17.2112 184.967 17.6849 185 18.1568V22.0268M185 19.0268C180 20.5268 180 16.5268 178 16.0268L185 19.0268Z" stroke="#FF7DCC" stroke-width="2" stroke-linecap="round" stroke-linejoin="round"/>
</svg>
