<svg width="48" height="48" viewBox="0 0 48 48" fill="none" xmlns="http://www.w3.org/2000/svg">
<path d="M45.9196 34.9485V41.5735C45.9221 42.1886 45.7961 42.7973 45.5497 43.3609C45.3033 43.9244 44.942 44.4302 44.4888 44.846C44.0356 45.2618 43.5005 45.5783 42.9179 45.7754C42.3353 45.9724 41.718 46.0456 41.1054 45.9902C34.31 45.2518 27.7825 42.9298 22.0475 39.2106C16.7118 35.8201 12.188 31.2963 8.79751 25.9606C5.06538 20.1995 2.74279 13.6403 2.01792 6.81438C1.96274 6.2037 2.03531 5.58823 2.23103 5.00713C2.42674 4.42604 2.74131 3.89207 3.1547 3.43921C3.56809 2.98635 4.07124 2.62453 4.63213 2.37678C5.19302 2.12904 5.79934 2.00079 6.41251 2.00021H13.0375C14.1092 1.98967 15.1482 2.36918 15.9608 3.06802C16.7734 3.76685 17.3042 4.73733 17.4542 5.79855C17.7338 7.91869 18.2524 10.0004 19 12.004C19.2971 12.7944 19.3614 13.6534 19.1853 14.4792C19.0092 15.3051 18.6 16.0631 18.0063 16.6635L15.2017 19.4681C18.3454 24.9968 22.923 29.5744 28.4517 32.7181L31.2563 29.9135C31.8567 29.3198 32.6147 28.9106 33.4406 28.7345C34.2664 28.5584 35.1254 28.6227 35.9158 28.9198C37.9194 29.6674 40.0011 30.186 42.1213 30.4656C43.194 30.617 44.1737 31.1573 44.874 31.9838C45.5743 32.8104 45.9465 33.8655 45.9196 34.9485Z" stroke="#53FA01" stroke-width="3.5" stroke-linecap="round" stroke-linejoin="round"/>
</svg>
